# xmcd CD Database Entry
#
# Track frame offsets:
# 150
# 14288
# 30925
# 42600
# 61125
# 79575
# 91275
# 107850
# 126225
# 143475
#
# Disc length: 2117 seconds
#
# Revision: 1
# Processed by: cddbd v1.4b42PL1 Copyright (c) Steve Scherf et al.
# Submitted via: tcd 2.0b
#
DISCID=7708430a
DTITLE=Robert Earl Keen, Jr. - No Kinda Dancer
DYEAR=1900
DGENRE=
TTITLE0=No Kinda Dancer
TTITLE1=The Front Porch Song
TTITLE2=Between Hello and Goodbye
TTITLE3=Swervin' In My Lane
TTITLE4=Christabel
TTITLE5=Willie
TTITLE6=Young Lovers Waltz
TTITLE7=Death of Tail Fitzsimmons
TTITLE8=Rolling By
TTITLE9=The Armadillo Jackal
EXTD=
EXTT0=
EXTT1=
EXTT2=
EXTT3=
EXTT4=
EXTT5=
EXTT6=
EXTT7=
EXTT8=
EXTT9=
PLAYORDER=
